# Tiled2Unity generated file. Do not modify by hand.
# Wavefront file for 'nivel-12_mesh_0009.obj'

# Vertices (Count = 16)
v -11 -5 0
v -12 -5 0
v -12 -4 0
v -11 -4 0
v -11 -6 0
v -12 -6 0
v -12 -5 0
v -11 -5 0
v -11 -7 0
v -12 -7 0
v -12 -6 0
v -11 -6 0
v -11 -18 0
v -12 -18 0
v -12 -17 0
v -11 -17 0

# Texture cooridinates (Count = 8)
vt 0 0
vt 0.25 0
vt 0.25 0.25
vt 0 0.25
vt 0.5 0.75
vt 0.75 0.75
vt 0.75 1
vt 0.5 1

# Normal
vn 0 0 -1

# Mesh description
g nivel-12_mesh_0009

# Faces
f 1/1/1 2/2/1 3/3/1 4/4/1
f 5/1/1 6/2/1 7/3/1 8/4/1
f 9/1/1 10/2/1 11/3/1 12/4/1
f 13/5/1 14/6/1 15/7/1 16/8/1

