# Tiled2Unity generated file. Do not modify by hand.
# Wavefront file for 'nivel-11_mesh_0006.obj'

# Vertices (Count = 12)
v -30 -8 0
v -31 -8 0
v -31 -7 0
v -30 -7 0
v -30 -9 0
v -31 -9 0
v -31 -8 0
v -30 -8 0
v -30 -10 0
v -31 -10 0
v -31 -9 0
v -30 -9 0

# Texture cooridinates (Count = 8)
vt 0.75 0.75
vt 1 0.75
vt 1 1
vt 0.75 1
vt 0.75 0.5
vt 1 0.5
vt 0.75 0.25
vt 1 0.25

# Normal
vn 0 0 -1

# Mesh description
g nivel-11_mesh_0006

# Faces
f 1/1/1 2/2/1 3/3/1 4/4/1
f 5/5/1 6/6/1 7/2/1 8/1/1
f 9/7/1 10/8/1 11/6/1 12/5/1

